<svg width="13" height="15" viewBox="0 0 13 15" fill="none" xmlns="http://www.w3.org/2000/svg">
<path d="M6.33333 8.33314C7.4379 8.33314 8.33333 7.43771 8.33333 6.33314C8.33333 5.22857 7.4379 4.33314 6.33333 4.33314C5.22876 4.33314 4.33333 5.22857 4.33333 6.33314C4.33333 7.43771 5.22876 8.33314 6.33333 8.33314Z" stroke="#0F0F10" stroke-opacity="0.3" stroke-width="2" stroke-linecap="round" stroke-linejoin="round"/>
<path d="M10.1047 10.1045L7.276 12.9331C7.02599 13.1829 6.68706 13.3232 6.33367 13.3232C5.98028 13.3232 5.64135 13.1829 5.39134 12.9331L2.562 10.1045C1.81615 9.35858 1.30823 8.40827 1.10246 7.37371C0.896695 6.33916 1.00233 5.26681 1.406 4.29229C1.80968 3.31777 2.49327 2.48483 3.37032 1.89881C4.24738 1.31279 5.27851 1 6.33334 1C7.38816 1 8.41929 1.31279 9.29635 1.89881C10.1734 2.48483 10.857 3.31777 11.2607 4.29229C11.6643 5.26681 11.77 6.33916 11.5642 7.37371C11.3584 8.40827 10.8505 9.35858 10.1047 10.1045Z" stroke="#0F0F10" stroke-opacity="0.3" stroke-width="2" stroke-linecap="round" stroke-linejoin="round"/>
</svg>
