<svg width="20" height="20" viewBox="0 0 20 20" fill="none" xmlns="http://www.w3.org/2000/svg">
<path d="M3.91797 16.599C4.16548 15.7752 4.67194 15.0532 5.36222 14.54C6.05249 14.0268 6.88982 13.7497 7.74997 13.75H11.75C12.6112 13.7497 13.4496 14.0274 14.1404 14.5418C14.8311 15.0562 15.3374 15.7798 15.584 16.605M18.75 9.75C18.75 14.7206 14.7206 18.75 9.75 18.75C4.77944 18.75 0.75 14.7206 0.75 9.75C0.75 4.77944 4.77944 0.75 9.75 0.75C14.7206 0.75 18.75 4.77944 18.75 9.75ZM12.75 7.75C12.75 9.40685 11.4069 10.75 9.75 10.75C8.09315 10.75 6.75 9.40685 6.75 7.75C6.75 6.09315 8.09315 4.75 9.75 4.75C11.4069 4.75 12.75 6.09315 12.75 7.75Z" stroke="#0F0F10" stroke-width="1.5" stroke-linecap="round" stroke-linejoin="round"/>
</svg>
